<mxfile host="app.diagrams.net" agent="Mozilla/5.0 (Windows NT 10.0; Win64; x64) AppleWebKit/537.36 (KHTML, like Gecko) Chrome/130.0.0.0 Safari/537.36" version="24.7.17">
  <diagram name="Page-1" id="vKN5p3QjiPUPfjsCj1lV">
    <mxGraphModel dx="1050" dy="618" grid="1" gridSize="10" guides="1" tooltips="1" connect="1" arrows="1" fold="1" page="1" pageScale="1" pageWidth="850" pageHeight="1100" math="0" shadow="0">
      <root>
        <mxCell id="0" />
        <mxCell id="1" parent="0" />
        <mxCell id="WcmTbD1h88kdAAe3cai_-10" style="edgeStyle=orthogonalEdgeStyle;rounded=0;orthogonalLoop=1;jettySize=auto;html=1;entryX=0;entryY=0.5;entryDx=0;entryDy=0;" edge="1" parent="1" source="WcmTbD1h88kdAAe3cai_-1" target="WcmTbD1h88kdAAe3cai_-3">
          <mxGeometry relative="1" as="geometry" />
        </mxCell>
        <mxCell id="WcmTbD1h88kdAAe3cai_-1" value="" style="whiteSpace=wrap;html=1;aspect=fixed;" vertex="1" parent="1">
          <mxGeometry x="40" y="40" width="160" height="160" as="geometry" />
        </mxCell>
        <mxCell id="WcmTbD1h88kdAAe3cai_-2" value="Welcome screen" style="text;html=1;align=center;verticalAlign=middle;whiteSpace=wrap;rounded=0;" vertex="1" parent="1">
          <mxGeometry x="90" y="105" width="60" height="30" as="geometry" />
        </mxCell>
        <mxCell id="WcmTbD1h88kdAAe3cai_-11" style="edgeStyle=orthogonalEdgeStyle;rounded=0;orthogonalLoop=1;jettySize=auto;html=1;entryX=0;entryY=0.5;entryDx=0;entryDy=0;" edge="1" parent="1" source="WcmTbD1h88kdAAe3cai_-3" target="WcmTbD1h88kdAAe3cai_-7">
          <mxGeometry relative="1" as="geometry" />
        </mxCell>
        <mxCell id="WcmTbD1h88kdAAe3cai_-3" value="" style="whiteSpace=wrap;html=1;aspect=fixed;" vertex="1" parent="1">
          <mxGeometry x="240" y="40" width="160" height="160" as="geometry" />
        </mxCell>
        <mxCell id="WcmTbD1h88kdAAe3cai_-4" value="What is the name of the site?" style="text;html=1;align=center;verticalAlign=middle;whiteSpace=wrap;rounded=0;" vertex="1" parent="1">
          <mxGeometry x="290" y="105" width="60" height="30" as="geometry" />
        </mxCell>
        <mxCell id="WcmTbD1h88kdAAe3cai_-12" style="edgeStyle=orthogonalEdgeStyle;rounded=0;orthogonalLoop=1;jettySize=auto;html=1;entryX=0;entryY=0.5;entryDx=0;entryDy=0;" edge="1" parent="1" source="WcmTbD1h88kdAAe3cai_-7" target="WcmTbD1h88kdAAe3cai_-9">
          <mxGeometry relative="1" as="geometry" />
        </mxCell>
        <mxCell id="WcmTbD1h88kdAAe3cai_-7" value="" style="whiteSpace=wrap;html=1;aspect=fixed;" vertex="1" parent="1">
          <mxGeometry x="440" y="40" width="160" height="160" as="geometry" />
        </mxCell>
        <mxCell id="WcmTbD1h88kdAAe3cai_-8" value="Query DB for site name" style="text;html=1;align=center;verticalAlign=middle;whiteSpace=wrap;rounded=0;" vertex="1" parent="1">
          <mxGeometry x="490" y="105" width="60" height="30" as="geometry" />
        </mxCell>
        <mxCell id="WcmTbD1h88kdAAe3cai_-17" style="edgeStyle=orthogonalEdgeStyle;rounded=0;orthogonalLoop=1;jettySize=auto;html=1;entryX=0;entryY=0.5;entryDx=0;entryDy=0;" edge="1" parent="1" source="WcmTbD1h88kdAAe3cai_-9" target="WcmTbD1h88kdAAe3cai_-15">
          <mxGeometry relative="1" as="geometry" />
        </mxCell>
        <mxCell id="WcmTbD1h88kdAAe3cai_-20" style="edgeStyle=orthogonalEdgeStyle;rounded=0;orthogonalLoop=1;jettySize=auto;html=1;entryX=0.5;entryY=0;entryDx=0;entryDy=0;" edge="1" parent="1" source="WcmTbD1h88kdAAe3cai_-9" target="WcmTbD1h88kdAAe3cai_-18">
          <mxGeometry relative="1" as="geometry" />
        </mxCell>
        <mxCell id="WcmTbD1h88kdAAe3cai_-9" value="" style="rhombus;whiteSpace=wrap;html=1;" vertex="1" parent="1">
          <mxGeometry x="640" y="80" width="80" height="80" as="geometry" />
        </mxCell>
        <mxCell id="WcmTbD1h88kdAAe3cai_-13" value="Exists" style="text;html=1;align=center;verticalAlign=middle;whiteSpace=wrap;rounded=0;" vertex="1" parent="1">
          <mxGeometry x="650" y="105" width="60" height="30" as="geometry" />
        </mxCell>
        <mxCell id="WcmTbD1h88kdAAe3cai_-14" value="Yes" style="text;html=1;align=center;verticalAlign=middle;whiteSpace=wrap;rounded=0;" vertex="1" parent="1">
          <mxGeometry x="710" y="90" width="60" height="30" as="geometry" />
        </mxCell>
        <mxCell id="WcmTbD1h88kdAAe3cai_-15" value="" style="whiteSpace=wrap;html=1;aspect=fixed;" vertex="1" parent="1">
          <mxGeometry x="760" y="40" width="160" height="160" as="geometry" />
        </mxCell>
        <mxCell id="WcmTbD1h88kdAAe3cai_-16" value="Get file location, run check_cols, upload to DB" style="text;html=1;align=center;verticalAlign=middle;whiteSpace=wrap;rounded=0;" vertex="1" parent="1">
          <mxGeometry x="810" y="105" width="60" height="30" as="geometry" />
        </mxCell>
        <mxCell id="WcmTbD1h88kdAAe3cai_-24" style="edgeStyle=orthogonalEdgeStyle;rounded=0;orthogonalLoop=1;jettySize=auto;html=1;entryX=1;entryY=0.5;entryDx=0;entryDy=0;" edge="1" parent="1" source="WcmTbD1h88kdAAe3cai_-18" target="WcmTbD1h88kdAAe3cai_-22">
          <mxGeometry relative="1" as="geometry" />
        </mxCell>
        <mxCell id="WcmTbD1h88kdAAe3cai_-18" value="Fill in fields for Site Table, push new row to DB" style="whiteSpace=wrap;html=1;aspect=fixed;" vertex="1" parent="1">
          <mxGeometry x="600" y="245" width="160" height="160" as="geometry" />
        </mxCell>
        <mxCell id="WcmTbD1h88kdAAe3cai_-21" value="No" style="text;html=1;align=center;verticalAlign=middle;whiteSpace=wrap;rounded=0;" vertex="1" parent="1">
          <mxGeometry x="680" y="190" width="60" height="30" as="geometry" />
        </mxCell>
        <mxCell id="WcmTbD1h88kdAAe3cai_-22" value="" style="whiteSpace=wrap;html=1;aspect=fixed;" vertex="1" parent="1">
          <mxGeometry x="400" y="245" width="160" height="160" as="geometry" />
        </mxCell>
        <mxCell id="WcmTbD1h88kdAAe3cai_-23" value="Get file location, run check_cols, upload to DB" style="text;html=1;align=center;verticalAlign=middle;whiteSpace=wrap;rounded=0;" vertex="1" parent="1">
          <mxGeometry x="450" y="310" width="60" height="30" as="geometry" />
        </mxCell>
      </root>
    </mxGraphModel>
  </diagram>
</mxfile>
